# xmcd CD database file
#
# Track frame offsets:
#	150
#	17655
#	29085
#
# Disc length: 607 seconds
#
# Revision: 3
# Processed by: cddbd v1.5.2PL0 Copyright (c) Steve Scherf et al.
# Submitted via: CDex 1.70beta3
#
DISCID=1e025d03
DTITLE=SHERBETS - カミソリソング
DYEAR=2001
DGENRE=J-Rock
TTITLE0=カミソリソング
TTITLE1=LONDON PUNKS BELL
TTITLE2=シェイク シェイク モンキービーチ
EXTD=YEAR: 2001
EXTT0=
EXTT1=
EXTT2=
PLAYORDER=
